<?xml version="1.0" encoding="utf-8"?>
<!-- Generator: Adobe Illustrator 27.9.4, SVG Export Plug-In . SVG Version: 9.03 Build 54784)  -->
<svg version="1.1"
	 id="svg5" xmlns:sodipodi="http://sodipodi.sourceforge.net/DTD/sodipodi-0.dtd" xmlns:inkscape="http://www.inkscape.org/namespaces/inkscape" xmlns:svg="http://www.w3.org/2000/svg"
	 xmlns="http://www.w3.org/2000/svg" xmlns:xlink="http://www.w3.org/1999/xlink" x="0px" y="0px" viewBox="0 0 458.4 473.3"
	 style="enable-background:new 0 0 458.4 473.3;" xml:space="preserve">
<style type="text/css">
	.st0{fill:#FE3F02;}
	.st1{fill:none;}
</style>
<g>
	<path class="st0" d="M33.3,300.4l-11.6-44.3L0.2,277.8l32.9,115.5c0,0,93.6,39.2,104,42.8l-5.8-89.7L33.3,300.4z"/>
	<polygon class="st0" points="151.1,346.7 155.7,443.2 229.2,473.3 302.2,443.4 306.9,346.7 229.2,315.8 	"/>
	<polygon class="st0" points="229.2,220.3 428.1,150.5 438,133.1 381.9,46.4 340.9,53.5 302.7,36.6 290.8,0 168,0.1 155,37.6 
		117.4,53.5 77.3,46.2 20.6,133.7 30.7,150.5 	"/>
	<polygon class="st0" points="436.6,256.1 425.5,300.2 327.3,346.4 321.5,436.1 425.4,393.3 458.4,277.8 	"/>
	<path class="st0" d="M420.7,234.9l-7.3-58.3l-184.2,62.5c-12.5-4.3-178.8-61.7-184.1-63l-7.3,59.1l12.4,52.3l91.6,41.5l87.4-32.4
		l87.4,32.3l91.2-41L420.7,234.9z M168.6,269.2c-3,5.1-7.1,9.7-11.9,13.2c-14,10.3-32.4,11.7-47.5,5.2c-8.9-3.9-16.7-10.5-21.7-19.8
		c-2.9-5.4-4.8-11.2-5.5-17.3c-1.3-11,1.9-20.2,6.5-30l86.1,31.7C173.7,258.2,171.7,264.1,168.6,269.2z M376.6,250.5
		c-0.7,6.1-2.6,11.9-5.5,17.3c-5,9.2-12.7,15.9-21.6,19.8c-15,6.6-33.4,5.1-47.4-5.2c-4.8-3.5-8.9-8.1-11.9-13.2
		c-3.1-5.1-5.2-11-6-17l85.8-31.7C374.7,230.3,377.9,239.5,376.6,250.5z"/>
</g>
<line class="st1" x1="-7960.7" y1="-15" x2="8422.3" y2="-15"/>
</svg>
